<svg xmlns="http://www.w3.org/2000/svg">
      <symbol fill="none" viewBox="0 0 64 45" id="box-open">
          <g>
            <path d="M42.5443 22.4341C40.8441 22.4341 39.2439 21.5295 38.4438 20.1223L32.0431 9.36704L25.5423 20.1223C24.7422 21.63 23.142 22.5347 21.4419 22.5347C20.9418 22.5347 20.5418 22.4341 20.1417 22.3336L6.44014 18.313V36.2048C6.44014 37.7126 7.44025 39.0193 8.84041 39.3208L30.4429 44.8492C31.443 45.0503 32.5431 45.0503 33.5432 44.8492L55.1457 39.3208C56.6459 39.0193 57.646 37.7126 57.646 36.2048V18.313L43.9444 22.3336C43.4444 22.4341 43.0443 22.4341 42.5443 22.4341ZM63.8467 11.1763L58.6461 0.823177C58.3461 0.22008 57.746 -0.0814683 57.0459 0.0190478L32.0431 3.13505L41.1441 18.514C41.5442 19.1171 42.3442 19.4187 43.0443 19.2176L62.8466 13.4882C63.8467 13.1867 64.2467 12.081 63.8467 11.1763ZM5.34001 0.823177L0.139418 11.1763C-0.260628 12.081 0.239429 13.1867 1.13953 13.4882L20.9418 19.2176C21.6419 19.4187 22.442 19.1171 22.842 18.4135L32.0431 3.13505L6.9402 0.0190478C6.24012 -0.0814683 5.64005 0.22008 5.34001 0.823177Z" fill="#0E96A7"></path>
          </g>
      </symbol>
      <symbol fill="none" viewBox="0 0 56 50" id="brain">
          <g>
            <path d="M20.2222 0C17.3056 0 14.875 2.05078 14.1944 4.78516C14.0972 4.78516 14 4.6875 14 4.6875C10.5 4.6875 7.77778 7.51953 7.77778 10.9375C7.77778 11.4258 7.77778 11.9141 7.875 12.3047C5.05556 13.4766 3.11111 16.3086 3.11111 19.5312C3.11111 20.8008 3.40278 21.9727 3.88889 22.9492C1.55556 24.3164 0 26.8555 0 29.6875C0 33.0078 1.94444 35.7422 4.76389 36.9141C4.66667 37.4023 4.66667 37.8906 4.66667 38.2812C4.66667 42.1875 7.77778 45.3125 11.6667 45.3125C12.0556 45.3125 12.4444 45.3125 12.8333 45.2148C13.7083 48.0469 16.3333 50 19.4444 50C23.2361 50 26.4444 46.875 26.4444 42.9688V6.25C26.4444 2.83203 23.625 0 20.2222 0ZM56 29.6875C56 26.8555 54.3472 24.3164 52.0139 22.9492C52.5 21.9727 52.8889 20.8008 52.8889 19.5312C52.8889 16.3086 50.8472 13.4766 48.0278 12.3047C48.125 11.9141 48.2222 11.4258 48.2222 10.9375C48.2222 7.51953 45.4028 4.6875 42 4.6875C41.9028 4.6875 41.8056 4.78516 41.7083 4.78516C41.0278 2.05078 38.5972 0 35.7778 0C32.2778 0 29.5556 2.83203 29.5556 6.25V42.9688C29.5556 46.875 32.6667 50 36.5556 50C39.5694 50 42.1944 48.0469 43.1667 45.2148C43.4583 45.3125 43.8472 45.3125 44.3333 45.3125C48.125 45.3125 51.3333 42.1875 51.3333 38.2812C51.3333 37.8906 51.2361 37.4023 51.1389 36.9141C53.9583 35.7422 56 33.0078 56 29.6875Z" fill="#0E96A7"></path>
          </g>
      </symbol>
      <symbol fill="none" viewBox="0 0 60 45" id="chart-line">
          <g>
            <path d="M58.125 37.5H7.5V1.875C7.5 0.9375 6.5625 0 5.625 0H1.875C0.820312 0 0 0.9375 0 1.875V41.25C0 43.3594 1.64062 45 3.75 45H58.125C59.0625 45 60 44.1797 60 43.125V39.375C60 38.4375 59.0625 37.5 58.125 37.5ZM54.375 3.75H40.4297C37.9688 3.75 36.6797 6.79688 38.4375 8.55469L42.3047 12.4219L33.75 20.9766L25.0781 12.4219C23.6719 10.8984 21.2109 10.8984 19.8047 12.4219L11.7188 20.5078C11.0156 21.2109 11.0156 22.3828 11.7188 23.0859L14.4141 25.7812C15.1172 26.4844 16.2891 26.4844 16.9922 25.7812L22.5 20.3906L31.0547 28.9453C32.4609 30.4688 34.9219 30.4688 36.3281 28.9453L47.5781 17.6953L51.4453 21.5625C53.2031 23.3203 56.1328 22.0312 56.1328 19.5703V5.625C56.25 4.6875 55.3125 3.75 54.375 3.75Z" fill="#0E96A7"></path>
          </g>
      </symbol>
      <symbol fill="none" viewBox="0 0 60 41" id="cloud">
          <g>
            <path d="M53.4459 18.9084C51.9043 18.1362 51 16.367 51 14.6429C51 9.79241 46.9687 5.85714 42 5.85714C39.1176 5.85714 35.6968 5.16196 33.4568 3.348C30.8843 1.26482 27.5795 0 24 0C15.6562 0 9 6.58929 9 14.6429C9 15.1346 8.6826 15.5664 8.22651 15.7501C3.38553 17.6998 0 22.4301 0 27.8214C0 35.1429 6 41 13.5 41H48C54.5625 41 60 35.7835 60 29.2857C60 24.8096 57.3482 20.8631 53.4459 18.9084Z" fill="#0E96A7"></path>
          </g>
      </symbol>
      <symbol fill="none" viewBox="0 0 28 51" id="dollar-sign">
          <g>
            <path d="M20.3665 23.3086L9.8668 20.1211C8.60295 19.8223 7.8252 18.627 7.8252 17.332C7.8252 15.7383 9.08905 14.3438 10.6446 14.3438H17.061C18.3249 14.3438 19.4915 14.7422 20.4637 15.4395C21.047 15.8379 21.8248 15.7383 22.3109 15.2402L25.7135 11.8535C26.3941 11.1562 26.2968 10.0605 25.5191 9.36328C24.4178 8.46996 23.1648 7.77637 21.8318 7.28252C19.3321 6.3564 17.1582 4.25953 17.1582 1.59375C17.1582 0.796875 16.3805 0 15.6027 0H12.4917C11.6167 0 10.9362 0.796875 10.9362 1.59375V6.08334C10.9362 6.24442 10.8056 6.375 10.6446 6.375C4.42253 6.375 -0.535644 11.8535 0.0476712 18.3281C0.436548 22.9102 3.83922 26.6953 8.21408 27.9902L18.1304 30.9785C19.3943 31.2773 20.2692 32.4727 20.2692 33.7676C20.2692 35.3613 18.9082 36.6562 17.3527 36.6562H10.9362C9.76958 36.6562 8.60295 36.3574 7.63076 35.6602C6.95023 35.2617 6.17248 35.3613 5.68638 35.8594L2.28371 39.2461C1.60318 39.9434 1.7004 41.0391 2.47815 41.6367C3.63596 42.5857 4.90407 43.3087 6.25097 43.8056C8.72834 44.7197 10.9362 46.7656 10.9362 49.4062C10.9362 50.3027 11.6167 51 12.4917 51H15.6027C16.3805 51 17.1582 50.3027 17.1582 49.4062C17.1582 46.7486 19.3719 44.6702 21.7843 43.555C24.3417 42.3727 26.4322 40.2602 27.3662 37.4531C29.5051 31.2773 26.0052 25.002 20.3665 23.3086Z" fill="#0E96A7"></path>
          </g>
      </symbol>
      <symbol fill="none" viewBox="0 0 62 37" id="handshake">
          <g>
            <path d="M42.0437 0H33.7125C32.9375 0 32.2594 0.2886 31.6781 0.8658L22.0875 9.5238C20.5375 11.063 20.5375 13.468 21.8937 14.911C23.1439 16.248 25.6352 16.6369 27.2825 15.2309C27.3059 15.211 27.2996 15.1996 27.3302 15.1996C27.3619 15.1996 27.4286 15.1877 27.4519 15.1663L35.0687 8.177C35.7469 7.5998 36.7156 7.5998 37.2969 8.2732C37.8781 8.8504 37.8781 9.8124 37.2 10.3896C35.8756 11.6036 35.9448 13.7125 37.346 14.8371L48.7894 24.0214C48.813 24.0404 48.8337 24.0634 48.8514 24.0879C49.024 24.3276 49.5031 24.1331 49.5031 23.8377V8.25649C49.5031 6.91259 48.9668 5.62425 48.0132 4.6773L44.2719 0.962C43.6906 0.3848 42.9156 0 42.0437 0ZM57.35 6.253C54.7819 6.253 52.7 8.33487 52.7 10.903V27.8018C52.7 29.4372 54.0562 30.8802 55.8 30.8802C59.2242 30.8802 62 28.1044 62 24.6802V10.903C62 8.33487 59.9181 6.253 57.35 6.253ZM57.35 27.8018C56.4781 27.8018 55.8 27.0322 55.8 26.2626C55.8 25.3968 56.4781 24.7234 57.35 24.7234C58.125 24.7234 58.9 25.3968 58.9 26.2626C58.9 27.0322 58.125 27.8018 57.35 27.8018ZM0 24.584C0 28.0082 2.77584 30.784 6.2 30.784C7.84687 30.784 9.3 29.4372 9.3 27.7056V10.903C9.3 8.33488 7.21812 6.253 4.65 6.253C2.08188 6.253 0 8.33487 0 10.903V24.584ZM4.65 24.7234C5.425 24.7234 6.2 25.3968 6.2 26.2626C6.2 27.0322 5.425 27.8018 4.65 27.8018C3.77812 27.8018 3.1 27.0322 3.1 26.2626C3.1 25.3968 3.77812 24.7234 4.65 24.7234ZM46.7906 26.455L35.3904 17.2616C33.6405 15.8504 31.1261 15.9142 29.45 17.4122C26.5437 20.1058 22.1844 19.8172 19.5687 17.0274C17.05 14.2376 17.2437 9.8124 20.0531 7.215L21.9731 5.47114C24.1008 3.53863 22.7337 0 19.8594 0C18.9875 0 18.2125 0.3848 17.6312 0.962L16.8941 1.69399C14.0177 4.5504 12.4 8.43657 12.4 12.4903V26.4468C12.4 27.142 12.9636 27.7056 13.6588 27.7056C13.9709 27.7056 14.2719 27.8215 14.5034 28.0309L22.8625 35.594C25.5604 37.7947 29.4083 37.3307 31.5467 34.7699C31.5686 34.7437 31.601 34.7282 31.6352 34.7282C31.6629 34.7282 31.6896 34.7382 31.7104 34.7565L33.325 36.1712C34.875 37.4218 37.2 37.2294 38.4594 35.6902L40.991 32.5274C41.2502 32.2037 41.7243 32.155 42.0437 32.4194C43.3031 33.4776 45.2406 33.2852 46.4031 31.9384L47.275 30.784C48.3406 29.4372 48.1469 27.5132 46.7906 26.455Z" fill="#0E96A7"></path>
          </g>
      </symbol>
      <symbol fill="none" viewBox="0 0 56 43" id="home">
          <g>
            <path d="M27.2721 11.1588L18.5762 18.279C12.777 23.0273 9.41421 30.127 9.41421 37.6221V41.4608C9.41421 42.3266 10.0936 43 10.9671 43H21.8371C22.6135 43 23.2929 42.3266 23.2929 41.4608V32.226C23.2929 31.4564 24.0693 30.6868 24.8458 30.6868H31.0572C31.9307 30.6868 32.6101 31.4564 32.6101 32.226V41.4608C32.6101 42.3266 33.3865 43 34.1629 43H45.13C45.9064 43 46.6828 42.3266 46.6828 41.4608V37.6161C46.6828 30.0695 43.2738 22.9266 37.4068 18.1801L28.7279 11.1588C28.5338 10.9664 28.2426 10.8702 28.0485 10.8702C27.7574 10.8702 27.4662 10.9664 27.2721 11.1588ZM55.5147 21.0671C50.414 16.8642 47.4593 10.601 47.4593 3.99172V1.15436C47.4593 0.480984 46.8769 0 46.2946 0H40.8596C40.1802 0 39.695 0.480984 39.695 1.15436C39.695 3.92724 36.4754 5.45672 34.3259 3.70498L30.9601 0.961969C30.1837 0.384787 29.1161 0 28.0485 0C26.8839 0 25.8163 0.384787 25.0399 0.961969L0.485269 21.0671C0.194107 21.2595 0 21.6443 0 21.9329C0 22.4853 0.471449 22.9155 0.828306 23.3372L2.81456 25.6846C3.00867 25.9732 3.29983 26.0694 3.68804 26.0694C3.9792 26.0694 4.27036 25.9732 4.46447 25.7808L27.2721 7.21477C27.4662 7.02237 27.7574 6.92617 28.0485 6.92617C28.2426 6.92617 28.5338 7.02237 28.7279 7.21477L51.5355 25.7808C51.7296 25.9732 52.0208 26.0694 52.312 26.0694C52.7002 26.0694 52.9913 25.9732 53.1854 25.6846L55.7088 22.7025C55.9029 22.5101 56 22.2215 56 21.9329C56 21.6443 55.8059 21.2595 55.5147 21.0671Z" fill="#0E96A7"></path>
          </g>
      </symbol>
      <symbol fill="none" viewBox="0 0 43 50" id="share-alt">
          <g>
            <path d="M33.7857 31.25C33.5847 31.25 33.3852 31.2565 33.1875 31.2692C29.8313 31.4855 26.1041 32.0853 23.2614 30.2881L19.889 28.1561C18.861 27.5062 18.3326 26.2162 18.3326 25C18.3326 23.8411 18.827 22.613 19.8065 21.9937L23.2614 19.8095C26.1041 18.0124 29.8612 18.5538 33.2195 18.7348C33.4067 18.7449 33.5955 18.75 33.7857 18.75C38.8728 18.75 43 14.6484 43 9.375C43 4.19922 38.8728 0 33.7857 0C28.6027 0 24.5714 4.19922 24.5714 9.375C24.5714 10.5912 24.043 11.8812 23.015 12.5311L19.6426 14.6631C16.7999 16.4603 13.0763 15.8373 9.71899 15.6398C9.5515 15.63 9.3832 15.625 9.21429 15.625C4.03125 15.625 0 19.8242 0 25C0 30.2734 4.03125 34.375 9.21429 34.375C9.37234 34.375 9.52985 34.3712 9.68666 34.3636C13.0458 34.2004 16.7999 33.6374 19.6426 35.4345L23.015 37.5666C24.0431 38.2165 24.5714 39.5064 24.5714 40.7227V40.625C24.5714 45.8984 28.6027 50 33.7857 50C38.8728 50 43 45.8984 43 40.625C43 35.4492 38.8728 31.25 33.7857 31.25Z" fill="#0E96A7"></path>
          </g>
      </symbol>
      <symbol fill="none" viewBox="0 0 46 50" id="shield-alt">
          <path d="M43.125 8.10943L24.725 0.293112C24.15 0.097704 23.575 0 23 0C22.3292 0 21.7542 0.097704 21.1792 0.293112L2.77917 8.10943C1.05417 8.89106 0 10.552 0 12.4084C0 31.8515 10.925 45.2369 21.1792 49.6336C22.3292 50.1221 23.575 50.1221 24.725 49.6336C32.9667 46.1163 46 34.0987 46 12.4084C46 10.552 44.85 8.89106 43.125 8.10943ZM36.0386 29.7021C32.1929 37.6635 23 33.0479 23 24.2063V18.9475C23 12.9762 29.097 8.94372 34.592 11.2807C37.7211 12.6114 39.8099 15.7274 39.2935 19.0882C38.6934 22.9932 37.5622 26.5479 36.0386 29.7021Z" fill="#0E96A7"></path>
      </symbol>
      <symbol fill="none" viewBox="0 0 57 50" id="shopping-cart">
          <g>
            <path d="M52.296 29.4922L56.9511 9.17969C57.2482 7.71484 56.1587 6.25 54.574 6.25H15.7482L14.8568 1.95312C14.5597 0.878906 13.5692 0 12.4797 0H2.37709C0.990454 0 0 1.07422 0 2.34375V3.90625C0 5.27344 0.990454 6.25 2.37709 6.25H9.21122L16.2434 39.8438C14.5597 40.8203 13.4702 42.5781 13.4702 44.5312C13.4702 47.5586 15.9463 50 19.0167 50C21.9881 50 24.5633 47.5586 24.5633 44.5312C24.5633 43.0664 23.8699 41.6992 22.8795 40.625H43.58C42.5895 41.6992 41.9952 43.0664 41.9952 44.5312C41.9952 47.5586 44.4714 50 47.5418 50C50.5131 50 53.0883 47.5586 53.0883 44.5312C53.0883 42.3828 51.8007 40.5273 49.9189 39.6484L50.4141 37.3047C50.8103 35.8398 49.6217 34.375 48.1361 34.375H21.5919L20.8986 31.25H49.9189C51.0084 31.25 51.9988 30.5664 52.296 29.4922Z" fill="#0E96A7"></path>
          </g>
      </symbol>
    <symbol fill="none" viewBox="0 0 62 50" id="tablets">
          <g>
            <path d="M15.5286 18.7063C7.57784 18.7063 1.17848 24.476 0.0149572 31.9083C-0.0820029 32.3973 0.305837 32.7884 0.790637 32.7884H30.1695C31.0865 32.7884 30.9842 31.4487 30.7533 30.5612C28.9917 23.7904 22.9009 18.7063 15.5286 18.7063ZM30.1695 35.9178H0.790637C0.305837 35.9178 -0.0820029 36.4068 0.0149572 36.8957C1.17848 44.328 7.57784 50 15.5286 50C23.3823 50 29.7817 44.328 30.9452 36.8957C31.0422 36.4068 30.6543 35.9178 30.1695 35.9178ZM57.5123 4.52629C51.9855 -0.950108 43.55 -1.43907 37.4415 2.96161C37.0537 3.25499 37.0537 3.84174 37.3446 4.13512L57.9001 24.8672C58.191 25.1606 58.7727 25.1606 59.0636 24.7694C63.4268 18.6085 62.942 10.1005 57.5123 4.52629ZM36.1991 7.38047C35.5415 6.71724 34.5083 5.73268 33.951 6.48215C29.5878 12.6431 30.0726 21.1511 35.5023 26.7253C41.029 32.2017 49.4646 32.6907 55.5731 28.29C56.322 27.7234 55.3382 26.684 54.677 26.0171L36.1991 7.38047Z" fill="#0E96A7"></path>
          </g>
      </symbol>
    <symbol fill="none" viewBox="0 0 56 38" id="video">
          <g>
            <path d="M32.6667 0H4.56944C2.04167 0 0 2.17708 0 4.75V33.349C0 35.9219 2.04167 38 4.56944 38H32.6667C35.1944 38 37.3333 35.9219 37.3333 33.349V4.75C37.3333 2.17708 35.1944 0 32.6667 0ZM51.0417 3.76042L40.4444 11.2812V26.8177L51.0417 34.3385C53.0833 35.724 56 34.2396 56 31.7656V6.33333C56 3.85937 53.0833 2.375 51.0417 3.76042Z" fill="#0E96A7"></path>
          </g>
      </symbol>
    <symbol fill="none" viewBox="0 0 25 25" id="fb">
      <g>
        <circle cx="12.5" cy="12.5" r="12.5" fill="#3A5998"></circle>
        <path d="M13.5475 20V13.6243H15.6206L15.9288 11.128H13.5475V9.53802C13.5475 8.81769 13.7409 8.3245 14.7374 8.3245H16V6.09892C15.3857 6.03062 14.7681 5.99764 14.1503 6.00013C12.3178 6.00013 11.0597 7.16076 11.0597 9.29143V11.1234H9V13.6197H11.0642V20H13.5475Z" fill="white"></path>
      </g>
    </symbol>
    <symbol viewBox="0 0 25 25" id="ig">
        <path d="M12.5 17.3125C9.84694 17.3125 7.6875 15.1537 7.6875 12.5C7.6875 9.84625 9.84694 7.6875 12.5 7.6875C15.1531 7.6875 17.3125 9.84625 17.3125 12.5C17.3125 15.1537 15.1531 17.3125 12.5 17.3125ZM12.5 9.0625C10.6046 9.0625 9.0625 10.6046 9.0625 12.5C9.0625 14.3954 10.6046 15.9375 12.5 15.9375C14.3954 15.9375 15.9375 14.3954 15.9375 12.5C15.9375 10.6046 14.3954 9.0625 12.5 9.0625Z" fill="white"/>
        <path d="M17.6562 8.375C18.2258 8.375 18.6875 7.91329 18.6875 7.34375C18.6875 6.77421 18.2258 6.3125 17.6562 6.3125C17.0867 6.3125 16.625 6.77421 16.625 7.34375C16.625 7.91329 17.0867 8.375 17.6562 8.375Z" fill="white"/>
        <path d="M16.625 21.4375H8.375C5.72194 21.4375 3.5625 19.2787 3.5625 16.625V8.375C3.5625 5.72125 5.72194 3.5625 8.375 3.5625H16.625C19.2781 3.5625 21.4375 5.72125 21.4375 8.375V16.625C21.4375 19.2787 19.2781 21.4375 16.625 21.4375ZM8.375 4.9375C6.47956 4.9375 4.9375 6.47956 4.9375 8.375V16.625C4.9375 18.5204 6.47956 20.0625 8.375 20.0625H16.625C18.5204 20.0625 20.0625 18.5204 20.0625 16.625V8.375C20.0625 6.47956 18.5204 4.9375 16.625 4.9375H8.375Z" fill="white"/>
    </symbol>
    <symbol fill="none" viewBox="0 0 25 26" id="linkedin">
        <g>
          <ellipse cx="12.5001" cy="12.5011" rx="12.5001" ry="12.5011" fill="#0A66C2"></ellipse>
          <mask id="mask0_1501_4693" maskUnits="userSpaceOnUse" x="0" y="0" width="26" height="26">
            <ellipse cx="12.5001" cy="12.5011" rx="12.5001" ry="12.5011" fill="#0A66C2"></ellipse>
          </mask>
          <g mask="url(#mask0_1501_4693)">
            <rect x="5.08847" y="5.57825" width="15.2383" height="13.2791" fill="white"></rect>
            <path d="M19.0789 17.6839H16.5694V13.7943C16.5694 12.8668 16.5526 11.6728 15.2642 11.6728C13.9571 11.6728 13.7571 12.6833 13.7571 13.7267V17.6836H11.2476V9.68501H13.6567V10.7781H13.6905C13.9316 10.3701 14.28 10.0345 14.6985 9.80696C15.1171 9.57943 15.5902 9.46853 16.0675 9.48606C18.611 9.48606 19.0799 11.1419 19.0799 13.296L19.0789 17.6839ZM8.41606 8.59166C8.12803 8.59171 7.84645 8.50723 7.60693 8.3489C7.36742 8.19057 7.18073 7.96549 7.07046 7.70214C6.96019 7.43879 6.93129 7.149 6.98743 6.8694C7.04357 6.58979 7.18223 6.33295 7.38586 6.13134C7.58949 5.92973 7.84895 5.79241 8.13144 5.73675C8.41392 5.68108 8.70674 5.70957 8.97286 5.81862C9.23898 5.92766 9.46646 6.11236 9.62652 6.34935C9.78659 6.58635 9.87205 6.865 9.8721 7.15007C9.87214 7.33935 9.8345 7.52678 9.76134 7.70167C9.68819 7.87655 9.58096 8.03546 9.44575 8.16932C9.31055 8.30319 9.15001 8.40938 8.97334 8.48185C8.79667 8.55431 8.60731 8.59163 8.41606 8.59166ZM9.67081 17.6839H7.15869V9.68501H9.67081V17.6839ZM22.7727 3.40251H3.94352C3.61594 3.39885 3.30029 3.52405 3.06594 3.75061C2.83159 3.97716 2.69772 4.28653 2.69373 4.61073V18.9539C2.69759 19.2783 2.83138 19.5879 3.06572 19.8147C3.30006 20.0414 3.61578 20.1669 3.94352 20.1634H22.7727C23.101 20.1675 23.4176 20.0424 23.6529 19.8156C23.8882 19.5889 24.0229 19.2789 24.0274 18.9539V4.6097C24.0227 4.28485 23.8879 3.97513 23.6527 3.74858C23.4174 3.52204 23.1009 3.39719 22.7727 3.40147" fill="#0A66C2"></path>
          </g>
        </g>
    </symbol>
</svg>